# xmcd CD database file generated by LOLA_Freedb v0.9beta0
# 
# Track frame offsets:
#      150
#      13175
#      22733
#      32790
#      44065
#      56749
#      68571
#      80338
#      92996
#      104132
# 
# Disc length: 1547 seconds
# 
# Revision: 0 
# Processed by: cddbd v1.5.2PL0 Copyright (c) Steve Scherf et al.
# Submitted via: LOLA_Freedb v0.9beta0
# 
DISCID=8306090a
DTITLE=Jim Reeves - Have I Told You Lately That I Love You
DYEAR=1985
DGENRE=
TTITLE0=Jim Reeves - Have I Told You Lately That I Love You
TTITLE1=Jim Reeves - I'm Gonna Change Everything
TTITLE2=Jim Reeves - Waltzing On Top Of The World
TTITLE3=Jim Reeves - Oklahoma Hills
TTITLE4=Jim Reeves - Beyond The Shadow Of A Doubt
TTITLE5=Jim Reeves - Roly Poly
TTITLE6=Jim Reeves - Each Time You Leave
TTITLE7=Jim Reeves - A Letter To My Heart
TTITLE8=Jim Reeves - Your Old Love Letters
TTITLE9=Jim Reeves - Highway To Nowhere
EXTD=
EXTT0=
EXTT1=
EXTT2=
EXTT3=
EXTT4=
EXTT5=
EXTT6=
EXTT7=
EXTT8=
EXTT9=
PLAYORDER=
